<?xml version="1.0" standalone="no"?><!-- Generator: Gravit.io --><svg xmlns="http://www.w3.org/2000/svg" xmlns:xlink="http://www.w3.org/1999/xlink" style="isolation:isolate" viewBox="34.75 32.75 20.5 20.5" width="20.5" height="20.5"><path d=" M 45 33 C 39.486 33 35 37.486 35 43 C 35 48.514 39.486 53 45 53 C 50.514 53 55 48.514 55 43 C 55 37.486 50.514 33 45 33 Z  M 45 34.667 C 49.613 34.667 53.333 38.388 53.333 43 C 53.333 47.613 49.613 51.333 45 51.333 C 40.388 51.333 36.667 47.613 36.667 43 C 36.667 38.388 40.388 34.667 45 34.667 Z  M 44.167 36.333 L 44.167 43.833 L 50 43.833 L 50 42.167 L 45.833 42.167 L 45.833 36.333 L 44.167 36.333 Z " fill="rgb(111,125,134)" vector-effect="non-scaling-stroke" stroke-width="0.5" stroke="rgb(111,125,134)" stroke-linejoin="miter" stroke-linecap="square" stroke-miterlimit="3"/></svg>