<?xml version="1.0" standalone="no"?><!-- Generator: Gravit.io --><svg xmlns="http://www.w3.org/2000/svg" xmlns:xlink="http://www.w3.org/1999/xlink" style="isolation:isolate" viewBox="39.313 64.719 22.525 24.578" width="22.525" height="24.578"><path d=" M 54.674 78.692 C 56.524 79.395 58.158 80.569 59.416 82.096 C 60.038 82.853 60.559 83.687 60.967 84.577 C 61.379 85.479 61.671 86.421 61.838 87.406 L 59.918 87.406 C 59.702 86.329 59.297 85.299 58.721 84.363 C 58.164 83.454 57.457 82.645 56.631 81.97 C 55.804 81.298 54.871 80.769 53.869 80.405 C 52.84 80.029 51.752 79.839 50.656 79.844 C 49.79 79.844 48.953 79.957 48.145 80.183 C 47.354 80.402 46.595 80.723 45.886 81.136 C 44.484 81.956 43.316 83.124 42.496 84.526 C 42.083 85.235 41.763 85.994 41.543 86.785 C 41.316 87.591 41.204 88.429 41.204 89.296 L 39.313 89.296 C 39.313 88.114 39.487 86.977 39.837 85.884 C 40.525 83.714 41.847 81.8 43.634 80.388 C 44.539 79.667 45.554 79.093 46.639 78.69 C 45.527 77.961 44.658 77.045 44.031 75.942 C 43.405 74.839 43.094 73.62 43.094 72.281 C 43.094 71.237 43.291 70.255 43.685 69.334 C 44.064 68.435 44.613 67.618 45.302 66.927 C 45.993 66.238 46.81 65.689 47.709 65.309 C 48.641 64.913 49.644 64.712 50.656 64.719 C 51.7 64.719 52.682 64.915 53.603 65.309 C 54.502 65.688 55.32 66.238 56.011 66.927 C 56.699 67.618 57.248 68.435 57.628 69.334 C 58.025 70.266 58.225 71.269 58.219 72.281 C 58.22 74.886 56.881 77.308 54.674 78.692 L 54.674 78.692 Z  M 44.985 72.281 C 44.985 73.07 45.132 73.805 45.428 74.49 C 46.008 75.847 47.09 76.929 48.448 77.51 C 49.133 77.805 49.869 77.953 50.657 77.953 C 51.435 77.953 52.168 77.805 52.857 77.51 C 54.22 76.933 55.305 75.85 55.885 74.489 C 56.183 73.791 56.334 73.039 56.329 72.28 C 56.332 71.524 56.182 70.776 55.886 70.08 C 55.6 69.404 55.186 68.79 54.667 68.271 C 54.148 67.752 53.534 67.339 52.858 67.053 C 52.162 66.756 51.413 66.605 50.656 66.609 C 49.868 66.609 49.133 66.757 48.448 67.052 C 47.086 67.63 46.003 68.716 45.428 70.079 C 45.131 70.775 44.98 71.525 44.985 72.281 Z " fill-rule="evenodd" fill="rgb(111,125,134)"/></svg>