<?xml version="1.0" standalone="no"?><!-- Generator: Gravit.io --><svg xmlns="http://www.w3.org/2000/svg" xmlns:xlink="http://www.w3.org/1999/xlink" style="isolation:isolate" viewBox="215.5 96 20.838 20" width="20.838" height="20"><g><path d=" M 231.276 100.072 C 233.227 100.072 234.82 101.664 234.82 103.616 C 234.82 104.836 234.197 105.919 233.253 106.559 C 235.059 107.333 236.338 109.125 236.338 111.21 L 235.326 111.21 C 235.326 108.967 233.518 107.159 231.276 107.159 Q 230.58 107.159 229.242 107.65 L 228.586 106.922 Q 229.052 106.661 229.298 106.558 C 228.32 105.898 227.734 104.796 227.732 103.616 C 227.732 101.664 229.324 100.072 231.276 100.072 Z  M 231.276 101.084 C 229.872 101.084 228.744 102.212 228.744 103.616 C 228.744 105.02 229.872 106.147 231.276 106.147 C 232.68 106.147 233.807 105.02 233.807 103.616 C 233.807 102.212 232.68 101.084 231.276 101.084 Z " fill="rgb(59,185,227)"/><g><path d=" M 225.643 105.302 C 226.764 105.728 227.755 106.439 228.517 107.365 C 228.894 107.824 229.21 108.329 229.457 108.869 C 229.707 109.415 230.243 110.585 230.344 111.182 L 229.181 111.182 C 229.05 110.529 228.445 109.306 228.096 108.739 C 227.758 108.188 227.33 107.698 226.829 107.289 C 226.328 106.881 225.763 106.561 225.156 106.34 C 224.532 106.112 223.872 105.997 223.208 106 C 222.683 106 222.176 106.069 221.687 106.206 C 221.207 106.338 220.747 106.533 220.317 106.783 C 219.467 107.28 218.76 107.988 218.263 108.838 C 218.012 109.267 217.818 109.728 217.685 110.207 C 217.548 110.696 217.479 110.724 217.479 111.25 L 216.333 111.25 C 216.333 110.533 216.439 110.323 216.651 109.661 C 217.068 108.345 217.87 107.185 218.952 106.33 C 219.501 105.893 220.116 105.545 220.774 105.301 C 220.099 104.859 219.573 104.304 219.193 103.636 C 218.814 102.967 218.625 102.228 218.625 101.417 C 218.625 100.784 218.744 100.189 218.983 99.631 C 219.213 99.086 219.546 98.59 219.963 98.172 C 220.382 97.754 220.878 97.421 221.422 97.191 C 221.987 96.951 222.595 96.829 223.208 96.833 C 223.841 96.833 224.436 96.952 224.994 97.191 C 225.539 97.421 226.035 97.754 226.453 98.172 C 226.871 98.591 227.204 99.086 227.434 99.631 C 227.674 100.195 227.796 100.803 227.792 101.417 C 227.792 102.995 226.981 104.463 225.643 105.302 L 225.643 105.302 Z  M 219.771 101.417 C 219.771 101.894 219.861 102.34 220.039 102.755 C 220.391 103.578 221.047 104.234 221.87 104.586 C 222.285 104.764 222.731 104.854 223.209 104.854 C 223.68 104.854 224.124 104.764 224.542 104.586 C 225.368 104.236 226.026 103.58 226.377 102.755 C 226.558 102.332 226.649 101.876 226.646 101.416 C 226.648 100.958 226.557 100.504 226.378 100.083 C 226.204 99.673 225.953 99.301 225.639 98.986 C 225.324 98.672 224.952 98.421 224.543 98.248 C 224.121 98.068 223.667 97.976 223.208 97.979 C 222.731 97.979 222.285 98.069 221.87 98.247 C 221.045 98.598 220.388 99.256 220.039 100.082 C 219.86 100.504 219.768 100.958 219.771 101.417 Z " fill-rule="evenodd" fill="rgb(59,185,227)"/><rect x="215.5" y="96" width="20" height="20" transform="matrix(1,0,0,1,0,0)" fill="none"/></g></g></svg>