<?xml version="1.0" standalone="no"?><!-- Generator: Gravit.io --><svg xmlns="http://www.w3.org/2000/svg" xmlns:xlink="http://www.w3.org/1999/xlink" style="isolation:isolate" viewBox="194.7 190.33 22.6 19.17" width="22.6" height="19.17"><path d=" M 213 209.5 L 207.5 209.5 L 207.5 202.5 L 204.5 202.5 L 204.5 209.5 L 199 209.5 C 198.171 209.5 197.5 208.829 197.5 208 L 197.5 208 L 197.5 200.5 L 194.7 200.5 L 206 190.33 L 217.3 200.5 L 214.5 200.5 L 214.5 208 C 214.5 208.829 213.829 209.5 213 209.5 L 213 209.5 Z  M 213 208.5 L 208.5 208.5 L 208.5 201.5 L 203.5 201.5 L 203.5 208.5 L 199 208.5 C 198.72 208.5 198.5 208.28 198.5 208 L 198.5 208 L 198.5 199.5 L 197.3 199.5 L 206 191.67 L 214.7 199.5 L 213.5 199.5 L 213.5 208 C 213.5 208.28 213.28 208.5 213 208.5 L 213 208.5 Z " fill-rule="evenodd" fill="rgb(139,139,139)"/></svg>