<?xml version="1.0" standalone="no"?><!-- Generator: Gravit.io --><svg xmlns="http://www.w3.org/2000/svg" xmlns:xlink="http://www.w3.org/1999/xlink" style="isolation:isolate" viewBox="12.875 81.969 14 11" width="14" height="11"><path d=" M 14.375 81.969 C 13.551 81.969 12.875 82.645 12.875 83.469 L 12.875 91.469 C 12.875 92.293 13.551 92.969 14.375 92.969 L 25.375 92.969 C 26.199 92.969 26.875 92.293 26.875 91.469 L 26.875 83.469 C 26.875 82.645 26.199 81.969 25.375 81.969 L 14.375 81.969 Z  M 14.375 82.969 L 25.375 82.969 C 25.656 82.969 25.875 83.188 25.875 83.469 L 25.875 89.84 L 21.379 85.996 L 19.984 87.189 L 17.375 84.999 L 13.875 87.939 L 13.875 83.469 C 13.875 83.188 14.094 82.969 14.375 82.969 Z  M 23.875 83.969 C 23.325 83.969 22.875 84.419 22.875 84.969 C 22.875 85.519 23.325 85.969 23.875 85.969 C 24.425 85.969 24.875 85.519 24.875 84.969 C 24.875 84.419 24.425 83.969 23.875 83.969 Z  M 17.375 86.305 L 19.211 87.848 L 14.391 91.969 L 14.375 91.969 C 14.242 91.97 14.114 91.918 14.02 91.824 C 13.926 91.73 13.873 91.602 13.875 91.469 L 13.875 89.242 L 17.375 86.305 Z  M 21.379 87.313 L 25.875 91.157 L 25.875 91.469 C 25.875 91.75 25.656 91.969 25.375 91.969 L 15.93 91.969 L 21.379 87.313 Z " fill="rgb(111,125,134)"/></svg>