<?xml version="1.0" standalone="no"?><!-- Generator: Gravit.io --><svg xmlns="http://www.w3.org/2000/svg" xmlns:xlink="http://www.w3.org/1999/xlink" style="isolation:isolate" viewBox="71 11 19.988 20" width="19.988" height="20"><path d=" M 86.135 11.006 C 84.867 11.064 83.661 11.616 82.717 12.557 L 79.013 16.261 C 79.594 15.676 81.766 16.057 82.286 16.578 L 84.497 14.366 C 84.993 13.874 85.643 13.562 86.278 13.533 C 86.867 13.494 87.444 13.714 87.858 14.136 C 88.357 14.639 88.461 15.235 88.461 15.629 C 88.461 16.294 88.148 16.976 87.628 17.497 L 83.751 21.372 C 82.771 22.349 81.252 22.464 80.391 21.602 C 79.899 21.11 79.102 21.11 78.61 21.602 C 78.118 22.094 78.118 22.891 78.61 23.383 C 79.501 24.27 80.681 24.703 81.884 24.703 C 83.184 24.703 84.513 24.201 85.532 23.182 L 89.438 19.276 C 90.428 18.285 90.988 16.96 90.988 15.629 C 90.991 14.361 90.473 13.148 89.555 12.274 C 88.637 11.4 87.401 10.941 86.135 11.006 L 86.135 11.006 Z  M 80.103 17.296 C 78.803 17.296 77.474 17.798 76.455 18.817 L 72.549 22.723 C 71.56 23.714 71 25.039 71 26.371 C 71 27.605 71.481 28.775 72.35 29.644 C 73.273 30.57 74.547 31.061 75.853 30.994 C 77.121 30.936 78.331 30.384 79.271 29.443 L 82.975 25.739 C 82.394 26.324 80.226 25.943 79.702 25.422 L 77.491 27.635 C 76.995 28.127 76.345 28.439 75.71 28.468 C 75.12 28.507 74.543 28.287 74.13 27.865 C 73.738 27.467 73.521 26.93 73.527 26.371 C 73.527 25.707 73.84 25.025 74.36 24.504 L 78.237 20.628 C 79.217 19.651 80.736 19.536 81.597 20.398 C 82.089 20.89 82.886 20.89 83.378 20.398 C 83.87 19.906 83.87 19.109 83.378 18.617 C 82.487 17.73 81.303 17.296 80.103 17.296 L 80.103 17.296 Z  M 83.923 29.271" fill="rgb(111,125,134)"/></svg>