<?xml version="1.0" standalone="no"?><!-- Generator: Gravit.io --><svg xmlns="http://www.w3.org/2000/svg" xmlns:xlink="http://www.w3.org/1999/xlink" style="isolation:isolate" viewBox="133.492 191.3 24.153 18.7" width="24.153" height="18.7"><g><path d="M 136.405 192.8 L 154.732 192.8 C 155.512 192.8 156.145 193.433 156.145 194.213 L 156.145 207.087 C 156.145 207.867 155.512 208.5 154.732 208.5 L 136.405 208.5 C 135.625 208.5 134.992 207.867 134.992 207.087 L 134.992 194.213 C 134.992 193.433 135.625 192.8 136.405 192.8 Z" style="fill:none;stroke:#8B8B8B;stroke-width:1;stroke-linecap:square;stroke-miterlimit:3;"/><path d=" M 154.313 192.8 L 145.569 192.8 L 136.825 192.8 C 135.813 192.8 135.594 193.358 136.336 194.046 L 140.281 197.706 L 144.225 201.366 C 144.967 202.054 146.171 202.054 146.912 201.366 L 150.857 197.706 L 154.802 194.046 C 155.543 193.358 155.324 192.8 154.313 192.8 Z " fill="none" vector-effect="non-scaling-stroke" stroke-width="1" stroke="rgb(139,139,139)" stroke-linejoin="miter" stroke-linecap="square" stroke-miterlimit="3"/></g></svg>