<?xml version="1.0" standalone="no"?><!-- Generator: Gravit.io --><svg xmlns="http://www.w3.org/2000/svg" xmlns:xlink="http://www.w3.org/1999/xlink" style="isolation:isolate" viewBox="160.063 191.3 19.8 22.45" width="19.8" height="22.45"><g><path d=" M 167.713 195.438 C 165.885 196.22 164.763 197.983 164.763 200.2 C 164.763 204.6 163.243 205.705 162.337 206.362 C 161.936 206.653 161.563 206.924 161.563 207.4 C 161.563 209.083 164.075 209.8 169.963 209.8 C 175.85 209.8 178.363 209.083 178.363 207.4 C 178.363 206.924 177.989 206.653 177.587 206.362 C 176.683 205.705 175.163 204.6 175.163 200.2 C 175.163 197.976 174.043 196.219 172.213 195.438 C 171.871 196.347 170.989 197 169.963 197 C 168.936 197 168.055 196.345 167.713 195.438 Z " fill="none" vector-effect="non-scaling-stroke" stroke-width="1" stroke="rgb(139,139,139)" stroke-linejoin="miter" stroke-linecap="square" stroke-miterlimit="3"/><path d=" M 169.963 192.8 C 168.811 192.8 167.875 193.736 167.875 194.888 C 167.875 196.039 168.811 196.975 169.963 196.975 C 171.114 196.975 172.05 196.039 172.05 194.888 C 172.05 193.736 171.114 192.8 169.963 192.8 Z " fill="none" vector-effect="non-scaling-stroke" stroke-width="1" stroke="rgb(139,139,139)" stroke-linejoin="miter" stroke-linecap="square" stroke-miterlimit="3"/><path d=" M 167.563 209.85 C 167.563 211.174 168.639 212.25 169.963 212.25 C 171.286 212.25 172.363 211.174 172.363 209.85 L 172.363 209.8 C 170.763 209.866 169.162 209.866 167.563 209.8 L 167.563 209.85 Z " fill="none" vector-effect="non-scaling-stroke" stroke-width="1" stroke="rgb(139,139,139)" stroke-linejoin="miter" stroke-linecap="square" stroke-miterlimit="3"/></g></svg>