<?xml version="1.0" standalone="no"?><!-- Generator: Gravit.io --><svg xmlns="http://www.w3.org/2000/svg" xmlns:xlink="http://www.w3.org/1999/xlink" style="isolation:isolate" viewBox="141.918 99.168 139.166 139.166" width="139.166" height="139.166"><path d=" M 239.02 208.538 C 213.51 227.614 177.595 223.739 156.741 199.659 C 135.887 175.58 137.181 139.48 159.706 116.956 C 182.23 94.431 218.33 93.137 242.409 113.991 C 266.489 134.845 270.364 170.76 251.288 196.27 L 281.083 226.066 L 268.816 238.333 L 239.02 208.538 Z  M 246.027 159.899 C 246.027 175.397 237.759 189.717 224.338 197.466 C 210.917 205.214 194.381 205.214 180.96 197.466 C 167.539 189.717 159.271 175.397 159.271 159.899 C 159.271 135.942 178.692 116.521 202.649 116.521 C 226.606 116.521 246.027 135.942 246.027 159.899 L 246.027 159.899 Z " fill-rule="evenodd" fill="rgb(111,125,134)"/></svg>