<?xml version="1.0" standalone="no"?><!-- Generator: Gravit.io --><svg xmlns="http://www.w3.org/2000/svg" xmlns:xlink="http://www.w3.org/1999/xlink" style="isolation:isolate" viewBox="55.679 31.917 26.567 25.577" width="26.567" height="25.577"><path d=" M 75.038 54.445 L 69.385 51.472 C 69.151 51.35 68.773 51.35 68.54 51.472 L 62.886 54.445 C 62.653 54.567 62.5 54.456 62.544 54.196 L 63.624 47.901 C 63.669 47.641 63.552 47.281 63.363 47.097 L 58.789 42.639 C 58.601 42.455 58.659 42.275 58.92 42.237 L 65.241 41.319 C 65.501 41.281 65.808 41.059 65.924 40.822 L 68.751 35.095 C 68.868 34.858 69.057 34.858 69.173 35.095 L 72 40.822 C 72.117 41.059 72.423 41.281 72.684 41.319 L 79.005 42.237 C 79.265 42.275 79.324 42.455 79.135 42.639 L 74.561 47.097 C 74.373 47.281 74.256 47.641 74.3 47.901 L 75.38 54.196 C 75.424 54.456 75.271 54.567 75.038 54.445 Z " fill="none" vector-effect="non-scaling-stroke" stroke-width="2" stroke="rgb(111,125,134)" stroke-linejoin="miter" stroke-linecap="square" stroke-miterlimit="3"/></svg>