<?xml version="1.0" standalone="no"?><!-- Generator: Gravit.io --><svg xmlns="http://www.w3.org/2000/svg" xmlns:xlink="http://www.w3.org/1999/xlink" style="isolation:isolate" viewBox="178.998 208 36.005 29" width="36.005" height="29"><path d=" M 215.003 211.43 C 213.652 212.024 212.221 212.415 210.757 212.59 C 212.296 211.675 213.451 210.233 214.007 208.531 C 212.555 209.386 210.969 209.988 209.316 210.309 C 207.916 208.828 205.965 207.992 203.928 208 C 199.85 208 196.541 211.277 196.541 215.32 C 196.541 215.89 196.606 216.45 196.731 216.988 C 190.805 216.699 185.277 213.92 181.51 209.336 C 179.551 212.685 180.554 216.982 183.795 219.117 C 182.622 219.078 181.476 218.765 180.447 218.203 L 180.447 218.289 C 180.447 221.839 182.993 224.797 186.368 225.473 C 185.736 225.646 185.083 225.733 184.427 225.734 C 183.951 225.734 183.486 225.68 183.038 225.598 C 183.975 228.5 186.701 230.621 189.936 230.684 C 186.83 233.094 182.9 234.183 178.998 233.714 C 182.384 235.862 186.312 237.002 190.323 237 C 203.909 237 211.343 225.844 211.343 216.164 C 211.343 215.848 211.331 215.531 211.315 215.223 C 212.764 214.194 214.014 212.908 215.003 211.43 Z " fill="rgb(3,169,244)"/></svg>